SplineFontDB: 3.0
FontName: Mertz-Light
FullName: Mertz-Light
FamilyName: Mertz
Weight: Light
Copyright: vernon adams
Version: 1
ItalicAngle: 0
UnderlinePosition: 0
UnderlineWidth: 0
Ascent: 1536
Descent: 512
sfntRevision: 0x00010000
UFOAscent: 1536
UFODescent: -512
LayerCount: 2
Layer: 0 0 "Back"  1
Layer: 1 0 "Fore"  0
FSType: 0
OS2Version: 0
OS2_WeightWidthSlopeOnly: 0
OS2_UseTypoMetrics: 0
CreationTime: 1337328194
ModificationTime: 1337439942
PfmFamily: 33
TTFWeight: 800
TTFWidth: 5
LineGap: 0
VLineGap: 0
OS2TypoAscent: 1536
OS2TypoAOffset: 0
OS2TypoDescent: -512
OS2TypoDOffset: 0
OS2TypoLinegap: 0
OS2WinAscent: 1536
OS2WinAOffset: 0
OS2WinDescent: 512
OS2WinDOffset: 0
HheadAscent: 1536
HheadAOffset: 0
HheadDescent: -512
HheadDOffset: 0
OS2SubXSize: 700
OS2SubYSize: 650
OS2SubXOff: 0
OS2SubYOff: 140
OS2SupXSize: 700
OS2SupYSize: 650
OS2SupXOff: 0
OS2SupYOff: 477
OS2StrikeYSize: 50
OS2StrikeYPos: 250
OS2Vendor: 'newt'
Lookup: 260 0 0 "'mark'"  {"'mark'-1"  } ['mark' ('DFLT' <'dflt' > 'latn' <'dflt' > ) ]
Lookup: 258 0 0 "'kern' Horizontal Kerning in Latin lookup 0"  {"'kern' Horizontal Kerning in Latin lookup 0-1" [400,30,2] } ['kern' ('DFLT' <'dflt' > 'latn' <'dflt' > ) ]
MarkAttachClasses: 1
DEI: 91125
LangName: 1033 "" "" "" "" "" "" "" "" "" "" "" "" "" "" "http://scripts.sil.org/OFL" 
PickledData: "(dp1
S'com.typemytype.robofont.foreground.layerStrokeColor'
p2
(F0.5
F0
F0.5
F0.69999999999999996
tp3
sS'com.typemytype.robofont.guides'
p4
((dp5
S'angle'
p6
I0
sS'name'
p7
NsS'magnetic'
p8
I5
sS'isGlobal'
p9
I1
sS'y'
I1004
sS'x'
I677
s(dp10
g6
I0
sg7
Nsg8
I5
sg9
I1
sS'y'
I1274
sS'x'
I673
s(dp11
g6
I0
sg7
Nsg8
I5
sg9
I1
sS'y'
I238
sS'x'
I668
s(dp12
g6
I0
sg7
Nsg8
I5
sg9
I1
sS'y'
I-33
sS'x'
I667
stp13
sS'com.typemytype.robofont.back.layerStrokeColor'
p14
(F0.5
F1
F0
F0.69999999999999996
tp15
sS'com.typemytype.robofont.layerOrder'
p16
(S'back'
tp17
sS'com.typemytype.robofont.segmentType'
p18
S'curve'
p19
sS'org.robofab.glyphOrder'
p20
(S'E'
S'M'
S'O'
S'R'
S'T'
S'o'

StartChar: C
Encoding: 35 67 0
Width: 1287
VWidth: 0
Flags: HW
PickledData: "(dp1
S'com.typemytype.robofont.layerData'
p2
(dp3
s."
AnchorPoint: "Bot" 749 -11 basechar 0
AnchorPoint: "Top" 748 1244.8 basechar 0
LayerCount: 2
Back
SplineSet
401.712 619.784 m 0
 401.712 878.774 579.701 1008.93 757.482 1008.93 c 0
 934.847 1008.93 1112.01 879.382 1112.01 618.967 c 0
 1112.01 362.655 934.029 233.855 756.255 233.855 c 0
 578.883 233.855 401.712 362.072 401.712 619.784 c 0
92 621.252 m 0
 92 185.624 424.857 -33.207 757.504 -33.207 c 0
 1089.73 -33.207 1421.74 185.068 1421.74 623.646 c 0
 1421.74 1057.61 1088.88 1275.61 756.239 1275.61 c 0
 424.015 1275.61 92 1058.16 92 621.252 c 0
EndSplineSet
Fore
SplineSet
749 27 m 0
 389.456 27 134 253.115 134 622 c 0
 134 991.698 389.116 1215 749 1215 c 0
 905.088 1215 1048.36 1162.48 1110 1135.78 c 1
 1110 993.422 l 1
 1008.51 1044.67 893.436 1074 780 1074 c 0
 548.497 1074 324 942.817 324 622 c 0
 324 302.497 547.874 168 780 168 c 0
 893.389 168 1010.18 198.178 1110 248.578 c 1
 1110 106.216 l 1
 1046.85 78.8643 904.898 27 749 27 c 0
EndSplineSet
EndChar

StartChar: E
Encoding: 37 69 1
Width: 973
VWidth: 0
Flags: HW
AnchorPoint: "Bot" 628 0 basechar 0
AnchorPoint: "Top" 516 1328 basechar 0
LayerCount: 2
Fore
SplineSet
198 60 m 1
 198 1181 l 1
 801 1181 l 1
 801 1045 l 1
 372 1045 l 1
 372 704 l 1
 735 704 l 1
 735 572 l 1
 370 572 l 1
 370 206 l 1
 811 206 l 1
 811 60 l 1
 198 60 l 1
EndSplineSet
EndChar

StartChar: M
Encoding: 45 77 2
Width: 1651
VWidth: 0
Flags: HW
AnchorPoint: "Top" 511 1328 basechar 0
LayerCount: 2
Fore
SplineSet
323.393 1145.03 m 1
 826.048 335.144 l 1
 1327.64 1144.83 l 1
 1513.83 60 l 1
 1352.19 60 l 1
 1243.28 743.094 l 1
 826 85.0411 l 1
 408.941 742.752 l 1
 298.896 60 l 1
 137.175 60 l 1
 323.393 1145.03 l 1
EndSplineSet
EndChar

StartChar: O
Encoding: 47 79 3
Width: 1499
VWidth: 0
Flags: HW
PickledData: "(dp1
S'com.typemytype.robofont.guides'
p2
((dp3
S'angle'
p4
I0
sS'name'
p5
NsS'magnetic'
p6
I5
sS'isGlobal'
p7
I00
sS'y'
I626
sS'x'
I354
stp8
sS'com.typemytype.robofont.layerData'
p9
(dp10
S'back'
p11
(dp12
g5
S'O'
sS'lib'
p13
(dp14
sS'unicodes'
p15
(tsS'width'
p16
I1327
sS'contours'
p17
((dp18
S'points'
p19
((dp20
S'segmentType'
p21
S'curve'
p22
sS'x'
F663
sS'smooth'
p23
I01
sS'y'
F238
s(dp24
S'y'
F238
sS'x'
F878
sg23
I00
s(dp25
S'y'
F422
sS'x'
F978
sg23
I00
s(dp26
g21
S'curve'
p27
sS'x'
F978
sg23
I01
sS'y'
F623
s(dp28
S'y'
F811
sS'x'
F978
sg23
I00
s(dp29
S'y'
F1004
sS'x'
F871
sg23
I00
s(dp30
g21
S'curve'
p31
sS'x'
F663
sg23
I01
sS'y'
F1004
s(dp32
S'y'
F1004
sS'x'
F456
sg23
I00
s(dp33
S'y'
F811
sS'x'
F349
sg23
I00
s(dp34
g21
S'curve'
p35
sS'x'
F349
sg23
I01
sS'y'
F623
s(dp36
S'y'
F422
sS'x'
F349
sg23
I00
s(dp37
S'y'
F238
sS'x'
F450
sg23
I00
stp38
s(dp39
g19
((dp40
g21
S'curve'
p41
sS'x'
F663
sg23
I01
sS'y'
F1274
s(dp42
S'y'
F1274
sS'x'
F1019
sg23
I00
s(dp43
S'y'
F995
sS'x'
F1291
sg23
I00
s(dp44
g21
S'curve'
p45
sS'x'
F1291
sg23
I01
sS'y'
F623
s(dp46
S'y'
F246
sS'x'
F1291
sg23
I00
s(dp47
S'y'
F-33
sS'x'
F1029
sg23
I00
s(dp48
g21
S'curve'
p49
sS'x'
F663
sg23
I01
sS'y'
F-33
s(dp50
S'y'
F-33
sS'x'
F298
sg23
I00
s(dp51
S'y'
F246
sS'x'
F36
sg23
I00
s(dp52
g21
S'curve'
p53
sS'x'
F36
sg23
I01
sS'y'
F623
s(dp54
S'y'
F995
sS'x'
F36
sg23
I00
s(dp55
S'y'
F1274
sS'x'
F308
sg23
I00
stp56
stp57
sS'components'
p58
(tsS'anchors'
p59
((dp60
S'y'
F1241
sS'x'
F664
sg5
S'top'
p61
stp62
sss."
AnchorPoint: "Top" 506 1328 basechar 0
LayerCount: 2
Fore
SplineSet
739 1077 m 0
 528.379 1077 324 910.253 324 620 c 0
 324 330.407 528.779 166 738 166 c 0
 948.017 166 1154 331.044 1154 619 c 0
 1154 910.275 948.669 1077 739 1077 c 0
739 27 m 0
 431.301 27 134 222.836 134 621 c 0
 134 1020.27 431.414 1216 738 1216 c 0
 1045.88 1216 1344 1019.91 1344 624 c 0
 1344 222.702 1045.58 27 739 27 c 0
EndSplineSet
EndChar

StartChar: R
Encoding: 50 82 4
Width: 1155
VWidth: 0
Flags: HW
AnchorPoint: "Top" 516 1328 basechar 0
LayerCount: 2
Fore
SplineSet
380 582 m 1
 380 60 l 1
 198 60 l 1
 198 1182 l 1
 504 1182 l 2
 744.203 1182 916 1089.89 916 878 c 0
 916 768.617 851.385 669.981 704.966 632.086 c 2
 619.781 610.038 l 1
 1018.42 60 l 1
 824.009 60 l 1
 474.009 582 l 1
 380 582 l 1
752 873 m 0
 752 1017.4 631.455 1108 458 1108 c 2
 378 1108 l 1
 378 615 l 1
 462 615 l 2
 604.488 615 752 715.162 752 873 c 0
EndSplineSet
EndChar

StartChar: T
Encoding: 52 84 5
Width: 1122
VWidth: 0
Flags: HW
AnchorPoint: "Top" 500 1328 basechar 0
LayerCount: 2
Fore
SplineSet
651 60 m 1
 463 60 l 1
 463 1033 l 1
 98 1033 l 1
 98 1181 l 1
 1016 1181 l 1
 1016 1033 l 1
 651 1033 l 1
 651 60 l 1
EndSplineSet
EndChar

StartChar: o
Encoding: 79 111 6
Width: 1146
VWidth: 0
Flags: HW
AnchorPoint: "Top" 564 987.7 basechar 0
LayerCount: 2
Back
SplineSet
787.158 443 m 0
 787.158 312.632 692.172 181 556.018 181 c 0
 419.895 181 326.842 312.582 326.842 443 c 0
 326.842 576.458 419.853 697 556.018 697 c 0
 693.181 697 787.158 575.411 787.158 443 c 0
72 443 m 0
 72 163.3 286.076 -25 556.018 -25 c 0
 825.908 -25 1042 163.276 1042 443 c 0
 1042 721.737 824.89 903 556.018 903 c 0
 286.084 903 72 720.696 72 443 c 0
EndSplineSet
Fore
SplineSet
564 843 m 0
 811.571 843 998 682.107 998 440.958 c 0
 998 197.479 811.168 35 564 35 c 0
 316.831 35 130 197.484 130 440.958 c 0
 130 682.111 316.43 843 564 843 c 0
564 141 m 0
 752.194 141 850 293.724 850 439 c 0
 850 581.865 754.589 737 564 737 c 0
 373.416 737 278 581.864 278 439 c 0
 278 293.723 375.803 141 564 141 c 0
EndSplineSet
EndChar

StartChar: H
Encoding: 40 72 8
Width: 1313
VWidth: 0
Flags: HW
AnchorPoint: "Top" 516 1328 basechar 0
LayerCount: 2
Fore
SplineSet
1113 60 m 1
 925 60 l 1
 925 578 l 1
 386 578 l 1
 386 60 l 1
 198 60 l 1
 198 1181 l 1
 386 1181 l 1
 386 726 l 1
 925 726 l 1
 925 1181 l 1
 1113 1181 l 1
 1113 60 l 1
EndSplineSet
EndChar

StartChar: A
Encoding: 33 65 10
Width: 1284
VWidth: 0
Flags: HW
AnchorPoint: "Bot" 1080 2.10001 basechar 0
AnchorPoint: "Top" 634 1328 basechar 0
LayerCount: 2
Back
SplineSet
868 449 m 5
 1402 1311 l 5
 1607 0 l 5
 1343 0 l 5
 1251 569 l 5
 868 -27 l 5
 485 569 l 5
 392 0 l 5
 128 0 l 5
 333 1311 l 5
 868 449 l 5
EndSplineSet
Fore
SplineSet
322.021 60 m 1
 130.251 60 l 1
 635.029 1168.48 l 1
 1159.25 60 l 1
 973.613 60 l 1
 841.613 350 l 1
 443.021 350 l 1
 322.021 60 l 1
634.375 897.526 m 1
 448.686 414 l 1
 838.448 414 l 1
 634.375 897.526 l 1
EndSplineSet
EndChar

StartChar: S
Encoding: 51 83 11
Width: 956
VWidth: 0
Flags: HW
AnchorPoint: "Top" 514 1328 basechar 0
LayerCount: 2
Back
SplineSet
132 90 m 6
 132 361 l 5
 132 361 347 213 481 213 c 4
 559 213 601 252 601 316 c 4
 601 348 599.334 376.79 510 442 c 6
 273 615 l 6
 163 695 105 817 105 923 c 4
 105 1106 238 1277 487 1277 c 4
 686 1277 830 1193.4 830 1187 c 6
 830 926 l 5
 830 926 641 1019 515 1019 c 4
 412 1019 396 974 396 933 c 4
 396 902 418.395 854.171 477 812 c 6
 666 676 l 6
 820 565 881 453 881 324 c 4
 881 85 710 -33 520 -33 c 4
 281 -33 132 82.1895 132 90 c 6
EndSplineSet
Fore
SplineSet
177 120.888 m 1
 177 251.964 l 1
 255.624 210.865 368.683 156.91 470.781 156.91 c 0
 573.919 156.91 643 221.968 643 316 c 0
 643 363.663 622.5 421.022 527.522 490.355 c 2
 293.669 663.246 l 2
 199.057 733.194 150 840.125 150 925 c 0
 150 1078.33 248.92 1217 465 1217 c 0
 595.711 1217 706.616 1176.55 755 1153.29 c 1
 755 1025.45 l 1
 685.439 1053.44 593.473 1086 506 1086 c 0
 372.466 1086 325 998.125 325 932 c 0
 325 872.742 363.639 813.404 429.708 763.22 c 2
 612.708 624.22 l 2
 757.463 514.27 810 423.639 810 320 c 0
 810 116.681 679.344 27 515 27 c 0
 343.198 27 224.04 90.5532 177 120.888 c 1
EndSplineSet
EndChar

StartChar: U
Encoding: -1 85 12
Width: 1402
VWidth: 0
Flags: W
HStem: -33 235<529.917 850.083> 1221 20G<122 414 966 1258>
VStem: 122 292<327.608 1241> 966 292<327.608 1241>
LayerCount: 2
Fore
SplineSet
690 -33 m 0
 373 -33 122 142 122 493 c 2
 122 1241 l 1
 414 1241 l 1
 414 500 l 2
 414 293 529 202 690 202 c 0
 851 202 966 293 966 500 c 2
 966 1241 l 1
 1258 1241 l 1
 1258 493 l 2
 1258 142 1007 -33 690 -33 c 0
EndSplineSet
EndChar

StartChar: D
Encoding: 36 68 13
Width: 1402
VWidth: 0
Flags: HW
AnchorPoint: "Top" 516 1328 basechar 0
LayerCount: 2
Back
SplineSet
-8.7002 621 m 0
 -8.7002 1058 323.3 1276 655.3 1276 c 0
 988.3 1276 1321.3 1058 1321.3 624 c 0
 1321.3 185 988.3 -33 656.3 -33 c 0
 323.3 -33 -8.7002 185 -8.7002 621 c 0
301.3 620 m 0
 301.3 362 478.3 234 655.3 234 c 0
 833.3 234 1011.3 363 1011.3 619 c 0
 1011.3 879 833.3 1009 656.3 1009 c 0
 478.3 1009 301.3 879 301.3 620 c 0
EndSplineSet
Fore
SplineSet
654 60 m 2
 198 60 l 1
 198 1181 l 1
 681 1181 l 2
 1055.23 1181 1247 954.971 1247 626 c 0
 1247 326.197 1037.72 60 654 60 c 2
372 1073 m 1
 372 169 l 1
 619 169 l 2
 914.967 169 1060.3 363.958 1060.3 623 c 0
 1060.3 843.486 926.92 1073 660 1073 c 2
 372 1073 l 1
EndSplineSet
EndChar

StartChar: U
Encoding: 53 85 14
Width: 1323
VWidth: 0
Flags: HW
AnchorPoint: "Top" 514 1328 basechar 0
LayerCount: 2
Fore
SplineSet
1133 498 m 2
 1133 180.037 945.094 27 655 27 c 0
 364.906 27 177 180.037 177 498 c 2
 177 1181 l 1
 349 1181 l 1
 349 505 l 2
 349 278.543 457.218 142 655 142 c 0
 852.783 142 961 278.543 961 505 c 2
 961 1181 l 1
 1133 1181 l 1
 1133 498 l 2
EndSplineSet
EndChar

StartChar: L
Encoding: 44 76 15
Width: 1009
VWidth: 0
Flags: HW
LayerCount: 2
Fore
SplineSet
198 1181 m 1
 386 1181 l 1
 386 208 l 1
 871 208 l 1
 871 60 l 1
 198 60 l 1
 198 1181 l 1
EndSplineSet
EndChar

StartChar: I
Encoding: 41 73 16
Width: 586
VWidth: 0
Flags: HW
AnchorPoint: "Bot" 286 -1.9 basechar 0
AnchorPoint: "Top" 300 1241.1 basechar 0
LayerCount: 2
Fore
SplineSet
386 60 m 1
 198 60 l 1
 198 1181 l 1
 386 1181 l 1
 386 60 l 1
EndSplineSet
EndChar

StartChar: V
Encoding: 54 86 17
Width: 1263
VWidth: 0
Flags: HW
AnchorPoint: "Top" 499 1328 basechar 0
LayerCount: 2
Fore
SplineSet
290.192 1181 m 1
 639.136 404.939 l 1
 962.022 1181 l 1
 1143.39 1181 l 1
 638.973 83.4459 l 1
 115.121 1181 l 1
 290.192 1181 l 1
EndSplineSet
EndChar

StartChar: N
Encoding: 46 78 18
Width: 1343
VWidth: 0
Flags: HW
AnchorPoint: "Top" 516 1328 basechar 0
LayerCount: 2
Fore
SplineSet
1143 79.336 m 1
 386 780.336 l 1
 386 60 l 1
 198 60 l 1
 198 1172.73 l 1
 955 464.731 l 1
 955 1181 l 1
 1143 1181 l 1
 1143 79.336 l 1
EndSplineSet
EndChar

StartChar: F
Encoding: 38 70 19
Width: 931
VWidth: 0
Flags: HW
LayerCount: 2
Fore
SplineSet
198 60 m 1
 198 1181 l 1
 801 1181 l 1
 801 1045 l 1
 372 1045 l 1
 372 687 l 1
 735 687 l 1
 735 555 l 1
 370 555 l 1
 370 60 l 1
 198 60 l 1
EndSplineSet
EndChar

StartChar: P
Encoding: 48 80 20
Width: 1063
VWidth: 0
Flags: HW
LayerCount: 2
Back
SplineSet
471 1048 m 2
 451 1048 l 1
 451 675 l 1
 475 675 l 2
 594 675 705 758 705 873 c 0
 705 976 626 1048 471 1048 c 2
453 0 m 1
 151 0 l 1
 151 1242 l 1
 517 1242 l 2
 768.5 1242 989 1138 989 878 c 0
 989 741 903 618 733 574 c 1
 1149 0 l 1
 805 0 l 1
 455 522 l 1
 453 522 l 1
 453 0 l 1
EndSplineSet
Fore
SplineSet
380 554.989 m 1
 380 60 l 1
 198 60 l 1
 198 1182 l 1
 504 1182 l 2
 762.754 1182 916 1078.67 916 862 c 0
 916 564.628 623.93 554.989 457.416 554.989 c 2
 380 554.989 l 1
752 857 m 0
 752 992.588 654.652 1108 458 1108 c 2
 378 1108 l 1
 378 593 l 1
 462 593 l 2
 628.621 593 752 705.68 752 857 c 0
EndSplineSet
EndChar

StartChar: W
Encoding: 55 87 21
Width: 1757
VWidth: 0
Flags: HW
AnchorPoint: "Top" 499 1328 basechar 0
LayerCount: 2
Back
SplineSet
1274.9 556 m 1
 1559.9 1241 l 1
 1874.9 1241 l 1
 1277.9 -58 l 1
 657.9 1241 l 1
 966.9 1241 l 1
 1274.9 556 l 1
682 556 m 1
 967 1241 l 1
 1282 1241 l 1
 685 -58 l 1
 65 1241 l 1
 374 1241 l 1
 682 556 l 1
EndSplineSet
Fore
SplineSet
874.011 1163.56 m 1
 1195.28 469.553 l 1
 1466.25 1181 l 1
 1641.44 1181 l 1
 1208.62 93.5 l 1
 880.6 798.885 l 1
 562.24 92.9199 l 1
 109.92 1181 l 1
 279.055 1181 l 1
 576.264 470.233 l 1
 874.011 1163.56 l 1
EndSplineSet
EndChar

StartChar: J
Encoding: 42 74 22
Width: 988
VWidth: 0
Flags: HW
AnchorPoint: "Top" 509 1328 basechar 0
LayerCount: 2
Back
SplineSet
665 -33 m 0
 665 202 l 0
 826 202 911 298 911 505 c 2
 911 1241 l 1
 1203 1241 l 1
 1203 498 l 2
 1203 147 982 -33 665 -33 c 0
315.1 90 m 6
 315.1 350 l 5
 315.1 350 530.1 202 664.1 202 c 5
 689.1 -33 l 5
 450.1 -33 315.1 82.1895 315.1 90 c 6
EndSplineSet
Fore
SplineSet
797 492 m 2
 797 170.288 666.861 29.9661 369.694 29.9661 c 0
 241.98 29.9661 170.631 57.2096 140 72.8375 c 1
 140 187.905 l 1
 194.111 164.338 261.834 142 339 142 c 0
 541.08 142 625 285.315 625 505 c 2
 625 1181 l 1
 797 1181 l 1
 797 492 l 2
EndSplineSet
EndChar

StartChar: G
Encoding: 39 71 23
Width: 1416
VWidth: 0
Flags: HW
AnchorPoint: "Top" 770 1236 basechar 0
LayerCount: 2
Fore
SplineSet
749 27 m 0
 389.456 27 134 253.115 134 622 c 0
 134 989.371 407.451 1215 769 1215 c 0
 925.088 1215 1068.36 1162.48 1130 1135.78 c 1
 1130 993.422 l 1
 1028.51 1044.67 913.436 1074 800 1074 c 0
 571.211 1074 324 946.426 324 622 c 0
 324 302.497 547.874 168 780 168 c 0
 868.232 168 957.596 185.904 1040.53 217.791 c 2
 1079 232.581 l 1
 1079 538 l 1
 809 538 l 1
 809 657 l 1
 1246 657 l 1
 1246 150.155 l 1
 1129.9 83.7492 981.193 27 749 27 c 0
EndSplineSet
EndChar

StartChar: B
Encoding: 34 66 24
Width: 1116
VWidth: 0
Flags: HW
LayerCount: 2
Back
SplineSet
453 727 m 6
 151 727 l 5
 151 0 l 5
 517 0 l 6
 791 0 989 120 989 380 c 4
 989 754 597 727 453 727 c 6
471 194 m 6
 451 194 l 5
 451 589 l 5
 475 589 l 6
 615 589 705 500 705 385 c 4
 705 282 641 194 471 194 c 6
EndSplineSet
Fore
SplineSet
534 60 m 2
 198 60 l 1
 198 1181 l 1
 504 1181 l 2
 786.29 1181 903 1093.44 903 920 c 0
 903 832.564 854.522 785.278 787.889 755.897 c 2
 673.773 705.582 l 1
 784.307 647.82 l 2
 895.019 589.967 970 535.043 970 380 c 0
 970 167.21 795.104 60 534 60 c 2
378 134 m 1
 508 134 l 2
 706.094 134 806 257.818 806 393 c 0
 806 544.538 681.906 657 515 657 c 2
 378 657 l 1
 378 134 l 1
769 901 m 0
 769 1047.95 657.303 1108 479 1108 c 2
 380 1108 l 1
 380 701 l 1
 464 701 l 2
 540.127 701 769 707.675 769 901 c 0
EndSplineSet
EndChar

StartChar: Y
Encoding: 57 89 25
Width: 1259
VWidth: 0
Flags: HW
AnchorPoint: "Top" 499 1328 basechar 0
LayerCount: 2
Fore
SplineSet
292.342 1181 m 1
 637.035 583.383 l 1
 955.988 1181 l 1
 1131.59 1181 l 1
 728.1 475.139 l 1
 728.1 60 l 1
 540.1 60 l 1
 540.1 478.983 l 1
 123.39 1181 l 1
 292.342 1181 l 1
EndSplineSet
EndChar

StartChar: a
Encoding: 65 97 26
Width: 995
VWidth: 0
Flags: HW
AnchorPoint: "Bot" 822 -7 basechar 0
LayerCount: 2
Back
SplineSet
178 590 m 1
 108 785 l 1
 110 787 258 903 462 903 c 0
 617 903 801 826 801 605 c 2
 801 301 l 2
 801 202 926 171 930 170 c 1
 798 -33 l 1
 795 -32 658 12 597 97 c 1
 518 9 435 -25 355 -25 c 0
 223 -25 101 66 101 227 c 0
 101 343 216 446 445 501 c 2
 551 527 l 1
 551 555 l 2
 551 644 511 679 450 679 c 0
 311 679 182 592 178 590 c 1
550 218 m 1
 550 373 l 1
 406 327 360 277 360 223 c 0
 360 185 388 156 426 156 c 0
 463 156 520 183 550 218 c 1
EndSplineSet
Fore
SplineSet
600 548.644 m 2
 600 676.438 520.507 736.419 432.157 736.419 c 0
 346.554 736.419 262.016 697.052 204.418 667.611 c 1
 167.848 769.484 l 1
 220.772 799.169 324.873 844 461 844 c 0
 604.399 844 750 778.399 750 601.543 c 2
 750 320.673 l 2
 749.746 237.358 787.748 170.407 860.68 150.202 c 1
 822.064 42.7265 l 1
 765.148 46.2463 676.39 65.9425 639.018 136.981 c 2
 599 213.052 l 1
 599 481.434 l 1
 600 481.672 l 1
 600 548.644 l 2
599 488.406 m 1
 534.237 465.989 l 1
 599 481.434 l 1
 599 488.406 l 1
534.237 465.989 m 1
 388.764 415.633 299 335.756 299 243 c 0
 299 171.993 342.498 96.915 423.414 96.915 c 0
 459.505 96.915 495.606 108.243 527.309 127.624 c 1
 489.383 68.2117 410.049 35 354 35 c 0
 243.63 35 150 104.99 150 229.736 c 0
 150 302.744 229.826 394.516 455.424 447.193 c 1
 534.237 465.989 l 1
599 195.248 m 1
 599 213.052 l 1
 586.396 237.011 l 1
 533.028 137.377 l 2
 531.246 134.052 529.337 130.801 527.309 127.624 c 1
 549.396 141.127 569.348 158.538 585.676 178.752 c 2
 599 195.248 l 1
EndSplineSet
EndChar

StartChar: b
Encoding: 66 98 27
Width: 1113
VWidth: 0
Flags: HW
LayerCount: 2
Back
SplineSet
521 697 m 4
 363 697 285 567 285 439 c 4
 285 309 365 181 521 181 c 4
 677 181 757 309 757 439 c 4
 757 567 679 697 521 697 c 4
521 -25 m 4
 251 -25 37 161 37 441 c 4
 37 719 251 903 521 903 c 4
 791 903 1005 719 1005 441 c 4
 1005 161 791 -25 521 -25 c 4
EndSplineSet
Fore
SplineSet
402.027 136.932 m 2
 434.591 132.566 462.454 131 490 131 c 0
 682.433 131 815 242.403 815 453.273 c 0
 815 620.066 706.772 740 550 740 c 0
 497.232 740 441.427 726.814 384.802 700.61 c 2
 350 684.505 l 1
 350 143.908 l 1
 402.027 136.932 l 2
965 535.279 m 0
 965 251.245 818.988 100 533 100 c 0
 437.665 100 319.856 120.467 195 158.514 c 1
 195 1247.39 l 1
 350 1268.67 l 1
 350 804.881 l 1
 438.854 853.616 l 2
 504.064 889.383 565.219 904 623 904 c 0
 810.312 904 965 747.026 965 535.279 c 0
EndSplineSet
EndChar

StartChar: c
Encoding: 67 99 28
Width: 966
VWidth: 0
Flags: HW
AnchorPoint: "Bot" 558 -7 basechar 0
LayerCount: 2
Fore
SplineSet
130 439.979 m 0
 130 680.688 311.717 843 565 843 c 0
 693.428 843 758.939 812.242 788 794.872 c 1
 788 668.925 l 1
 736.343 695.531 667.371 718 580 718 c 0
 402.706 718 285 600.856 285 440.848 c 0
 285 280.917 405.895 157 592 157 c 0
 676.46 157 737.602 172.983 788 195.416 c 1
 788 90.9643 l 1
 749.297 69.0857 676.862 35 571 35 c 0
 301.381 35 130 204.08 130 439.979 c 0
EndSplineSet
EndChar

StartChar: d
Encoding: 68 100 29
Width: 1099
VWidth: 0
Flags: HW
LayerCount: 2
Fore
SplineSet
710.198 700.61 m 2
 652.211 727.445 597.348 740 545 740 c 0
 388.228 740 280 620.066 280 453.273 c 0
 280 242.406 412.565 131 605 131 c 0
 632.627 131 662.146 132.8 692.971 136.932 c 2
 745 143.906 l 1
 745 684.505 l 1
 710.198 700.61 l 2
900 1268.67 m 1
 900 158.538 l 1
 773.319 119.911 657.613 100 562 100 c 0
 276.011 100 130 251.246 130 535.279 c 0
 130 747.026 284.689 904 472 904 c 0
 529.299 904 592.67 888.432 656.147 853.616 c 2
 745 804.882 l 1
 745 1247.39 l 1
 900 1268.67 l 1
EndSplineSet
EndChar

StartChar: e
Encoding: 69 101 30
Width: 1021
VWidth: 0
Flags: HW
AnchorPoint: "Bot" 720 -7 basechar 0
AnchorPoint: "Top" 518 987.7 basechar 0
LayerCount: 2
Back
SplineSet
556 697 m 4
 398 697 320 567 320 439 c 4
 320 309 400 181 556 181 c 4
 712 181 792 309 792 439 c 4
 792 567 714 697 556 697 c 4
556 -25 m 4
 286 -25 72 161 72 441 c 4
 72 719 286 903 556 903 c 4
 826 903 1040 719 1040 441 c 4
 1040 161 826 -25 556 -25 c 4
EndSplineSet
Fore
SplineSet
302.809 582.315 m 2
 281.244 506 l 1
 758.867 506 l 1
 750.552 573.352 l 2
 735.031 699.102 644.292 761 545 761 c 0
 433.613 761 333.735 691.77 302.809 582.315 c 2
290.349 376.366 m 2
 329.71 193.635 485.662 136 624 136 c 0
 707.148 136 784.448 155.396 847 182.358 c 1
 847 91.6712 l 1
 772.813 53.8345 686.896 33 600 33 c 0
 358.183 33 130 172.948 130 452.685 c 0
 130 662.919 287.86 843 517 843 c 0
 759.776 843 858 683.689 858 455.702 c 2
 858 449 l 1
 274.704 449 l 1
 290.349 376.366 l 2
EndSplineSet
EndChar

StartChar: f
Encoding: 70 102 31
Width: 767
VWidth: 0
Flags: HW
LayerCount: 2
Fore
SplineSet
399 112 m 1
 243 112 l 1
 243 783 l 1
 125 783 l 1
 125 884 l 1
 240 884 l 1
 240 952 l 2
 240 1142.31 330.051 1269 508 1269 c 0
 551.661 1269 599.461 1261.06 653 1244.61 c 1
 653 1104.26 l 1
 606.251 1124.14 572.378 1132 541 1132 c 0
 514.628 1132 479.153 1132.86 446.321 1106.67 c 0
 399.964 1069.69 399 1013.67 399 952 c 2
 399 884 l 1
 555 884 l 1
 555 758 l 1
 399 758 l 1
 399 112 l 1
EndSplineSet
EndChar

StartChar: g
Encoding: 71 103 32
Width: 1079
VWidth: 0
Flags: HW
LayerCount: 2
Fore
SplineSet
494 -8 m 0
 255.643 -8 129 203.492 129 400.688 c 0
 129 616.809 303.167 781 494 781 c 0
 529.936 781 601.888 753.644 637.89 718.173 c 2
 740 617.568 l 1
 740 764 l 1
 891 764 l 1
 891 -56 l 2
 891 -312.408 718.628 -393 543 -393 c 0
 427.682 -393 337.248 -361.716 290 -342.439 c 1
 290 -212.925 l 1
 346.468 -237.902 428.078 -266 521 -266 c 0
 629.866 -266 769 -203.378 769 -53 c 0
 769 -28.9177 764.569 -5.48286 758.271 17.3859 c 2
 732.356 111.488 l 1
 660.092 45.8769 l 2
 636.318 24.291 570.308 -8 494 -8 c 0
289 456.751 m 0
 289 289.645 389.126 181 546 181 c 0
 594.28 181 646.784 197.116 695.312 212.669 c 2
 737 226.03 l 1
 737 636.55 l 1
 723.265 653.183 l 2
 675.585 710.924 593.382 722 543 722 c 0
 417.38 722 289 619.728 289 456.751 c 0
EndSplineSet
EndChar

StartChar: h
Encoding: 72 104 33
Width: 1181
VWidth: 0
Flags: HW
LayerCount: 2
Fore
SplineSet
360 120 m 1
 198 120 l 1
 198 1247.3 l 1
 357 1268.79 l 1
 357 703.77 l 1
 456.701 791.757 l 2
 548.303 872.595 642.846 903 727 903 c 0
 885.357 903 1006 794.705 1006 640.15 c 2
 1006 120 l 1
 844 120 l 1
 844 618.757 l 2
 844 750.482 746.746 808 648 808 c 0
 537.128 808 410.987 754.959 366.587 668.193 c 2
 360 655.32 l 1
 360 120 l 1
EndSplineSet
EndChar

StartChar: i
Encoding: 73 105 34
Width: 548
VWidth: 0
Flags: HW
AnchorPoint: "Bot" 274 1 basechar 0
LayerCount: 2
Fore
SplineSet
380 1186 m 0
 380 1132.32 342.278 1081 272 1081 c 0
 201.155 1081 163 1131.85 163 1186 c 0
 163 1237.65 200.993 1291 272 1291 c 0
 342.445 1291 380 1237.18 380 1186 c 0
348 60 m 1
 195 60 l 1
 195 815 l 1
 348 815 l 1
 348 60 l 1
EndSplineSet
EndChar

StartChar: j
Encoding: 74 106 35
Width: 577
VWidth: 0
Flags: HW
LayerCount: 2
Fore
SplineSet
408.284 1185 m 0
 408.284 1130.54 369.729 1079 299.284 1079 c 0
 230.126 1079 189.284 1130.62 189.284 1185 c 0
 189.284 1237.22 230.088 1288 299.284 1288 c 0
 370.68 1288 408.284 1237.6 408.284 1185 c 0
378.284 -79 m 2
 378.284 -182.345 346.434 -331.274 79.7951 -345.076 c 1
 54.465 -222.832 l 1
 107.455 -220.119 155.213 -215.09 189.745 -175.168 c 0
 225.019 -134.387 221.284 -87.4788 221.284 -46.3809 c 2
 221.284 764 l 1
 378.284 764 l 1
 378.284 -79 l 2
EndSplineSet
EndChar

StartChar: k
Encoding: 75 107 36
Width: 1121
VWidth: 0
Flags: HW
LayerCount: 2
Fore
SplineSet
198 1248.15 m 1
 353 1267.88 l 1
 353 121 l 1
 198 121 l 1
 198 1248.15 l 1
771.351 61 m 1
 428.561 463.749 l 1
 730.162 815 l 1
 912.597 815 l 1
 603.23 469.858 l 1
 963.214 61 l 1
 771.351 61 l 1
EndSplineSet
EndChar

StartChar: l
Encoding: 76 108 37
Width: 720
VWidth: 0
Flags: HW
LayerCount: 2
Fore
SplineSet
343 358.353 m 2
 343 250.612 427.585 210.433 496.075 210.433 c 0
 531.395 210.433 564.013 216.798 592 224.8 c 1
 592 125.998 l 1
 558.57 112.693 502.938 96 424 96 c 0
 298.761 96 188 172.15 188 330.342 c 2
 188 1247.39 l 1
 343 1268.67 l 1
 343 358.353 l 2
EndSplineSet
EndChar

StartChar: m
Encoding: 77 109 38
Width: 1633
VWidth: 0
Flags: HW
LayerCount: 2
Fore
SplineSet
338 52 m 1
 183 52 l 1
 183 824 l 1
 335 824 l 1
 335 617.52 l 1
 441.388 747.204 l 2
 512.97 834.462 614.223 841 661 841 c 0
 752.251 841 798.148 801.601 839.14 737.85 c 2
 880.056 674.216 l 1
 932.699 728.549 l 2
 1039.26 838.531 1152.44 842 1187 842 c 0
 1333.56 842 1456 762.691 1456 567.354 c 2
 1456 52 l 1
 1301 52 l 1
 1301 547.842 l 2
 1301 625.236 1265.78 740 1149 740 c 0
 1054.76 740 962.186 686.496 906.317 624.147 c 2
 891 607.055 l 1
 891 52 l 1
 739 52 l 1
 739 558.531 l 2
 739 684.07 656.726 740 583 740 c 0
 498.199 740 413.533 700.902 350.093 616.769 c 2
 338 600.732 l 1
 338 52 l 1
EndSplineSet
EndChar

StartChar: n
Encoding: 78 110 39
Width: 1166
VWidth: 0
Flags: HW
AnchorPoint: "Top" 579 987.7 basechar 0
LayerCount: 2
Back
SplineSet
132 875 m 1
 132 0 l 1
 387 0 l 1
 387 590 l 1
 424 643 529.3 697 627 697 c 0
 683 697 779 663 779 565 c 2
 779 0 l 1
 1033 0 l 1
 1033 583 l 2
 1033 765 888 903 697 903 c 0
 639 903 456 876 384 764 c 1
 384 875 l 1
 132 875 l 1
EndSplineSet
Fore
SplineSet
344 60 m 1
 182 60 l 1
 182 815 l 1
 341 815 l 1
 341 643.77 l 1
 440.701 731.757 l 2
 532.303 812.595 626.846 843 711 843 c 0
 869.357 843 990 734.705 990 580.15 c 2
 990 60 l 1
 828 60 l 1
 828 558.757 l 2
 828 690.482 730.746 748 632 748 c 0
 521.128 748 394.987 694.959 350.587 608.193 c 2
 344 595.32 l 1
 344 60 l 1
EndSplineSet
EndChar

StartChar: p
Encoding: 80 112 40
Width: 1101
VWidth: 0
Flags: HW
LayerCount: 2
Fore
SplineSet
371.665 186.783 m 2
 402.341 171.798 454.643 152 525 152 c 0
 699.983 152 784 312.869 784 456.622 c 0
 784 587.247 699.633 702 543 702 c 0
 463.516 702 402.477 675.116 368.958 656.576 c 2
 338 639.452 l 1
 338 203.227 l 1
 371.665 186.783 l 2
338 -364 m 1
 182 -364 l 1
 182 764 l 1
 338 764 l 1
 338 619.697 l 1
 438.522 711.751 l 2
 469.867 740.455 534.183 786 620 786 c 0
 823.932 786 952 612.666 952 390.769 c 0
 952 188.453 808.73 -26 545 -26 c 0
 494.115 -26 450.644 -16.4812 418.064 -4.921 c 2
 338 23.4883 l 1
 338 -364 l 1
EndSplineSet
EndChar

StartChar: q
Encoding: 81 113 41
Width: 1077
VWidth: 0
Flags: HW
LayerCount: 2
Fore
SplineSet
295 444.771 m 0
 295 307.557 405.586 171 578 171 c 0
 630.801 171 669.877 180.762 693.928 189.714 c 2
 733 204.255 l 1
 733 653.348 l 1
 698.818 669.642 l 2
 642.547 696.465 589.842 709 540 709 c 0
 412.795 709 295 609.833 295 444.771 c 0
888 -364 m 1
 733 -364 l 1
 733 17.2635 l 1
 653.096 -10.8341 l 2
 629.082 -19.2785 599.648 -26 567 -26 c 0
 280.393 -26 128 189.244 128 393.651 c 0
 128 616.399 304.395 781 505 781 c 0
 549.409 781 597.294 768.209 643.644 742.207 c 2
 733 692.079 l 1
 733 764 l 1
 888 764 l 1
 888 -364 l 1
EndSplineSet
EndChar

StartChar: r
Encoding: 82 114 42
Width: 896
VWidth: 0
Flags: HW
LayerCount: 2
Fore
SplineSet
758.652 735.716 m 1
 694.174 620.335 l 1
 654.047 652.679 608.357 674.798 555.881 674.798 c 0
 426.503 674.798 335 550.249 335 365.122 c 2
 335 60 l 1
 182 60 l 1
 182 816 l 1
 335 816 l 1
 335 525.005 l 1
 446.294 708.402 l 2
 486.535 774.714 561.874 821 603 821 c 0
 651.296 821 699.905 796.087 758.652 735.716 c 1
EndSplineSet
EndChar

StartChar: s
Encoding: 83 115 43
Width: 846
VWidth: 0
Flags: HW
AnchorPoint: "Top" 415.508 988.7 basechar 0
LayerCount: 2
Fore
SplineSet
661.901 792.635 m 1
 638.854 704.769 l 1
 586.204 725.689 514.794 749 442.508 749 c 0
 372.219 749 307.78 715.367 307.78 649.632 c 0
 307.78 600.078 339.915 562.135 375.233 540.2 c 2
 588.233 407.906 l 2
 663.26 361.306 695.828 297.94 695.828 236.404 c 0
 695.828 139.282 617.806 35 450.508 35 c 0
 294.64 35 191.389 89.4382 147.671 118.368 c 1
 159.114 213.725 l 1
 246.548 168.032 342.595 132.314 425.059 132.314 c 0
 463.255 132.314 516.975 138.633 541.951 190.064 c 0
 548.928 204.431 551.553 219.609 551.553 233.363 c 0
 551.553 279.749 520.394 316.403 481.377 340.077 c 2
 283.413 460.666 l 2
 202.085 510.207 168.364 579.612 168.364 643.749 c 0
 168.364 741.237 247.668 844 418.508 844 c 0
 529.132 844 615.488 813.741 661.901 792.635 c 1
EndSplineSet
EndChar

StartChar: t
Encoding: 84 116 44
Width: 833
VWidth: 0
Flags: HW
LayerCount: 2
Back
SplineSet
754 302.217 m 1
 748.71 298.072 634.341 203 514 203 c 0
 468.655 203 440.584 219.758 440.584 270.797 c 2
 440.584 663.408 l 1
 709 663.408 l 1
 709 884 l 1
 440.584 884 l 1
 440.584 1100 l 1
 355.059 1100 l 1
 71.7998 775.129 l 1
 64.952 764.303 53 750.009 53 724.346 c 0
 53 664.874 113.455 662.907 126 662.907 c 2
 191 662.907 l 1
 191 217.736 l 2
 191 60.4697 338.387 -26 484.892 -26 c 0
 655.168 -26 752.535 69.887 754 71.3027 c 1
 754 302.217 l 1
EndSplineSet
Fore
SplineSet
525.609 206.729 m 0
 581.381 206.729 639.123 223.948 683.405 239.567 c 1
 683.405 149.404 l 1
 649.83 128.724 576.924 94 464.405 94 c 0
 331.024 94 220.405 168.18 220.405 280.805 c 2
 220.405 780 l 1
 110.074 780 l 1
 370.405 1048.09 l 1
 370.405 875 l 1
 638.405 875 l 1
 638.405 780 l 1
 370.405 780 l 1
 370.405 356.034 l 2
 370.405 250.334 453.675 206.729 525.609 206.729 c 0
EndSplineSet
EndChar

StartChar: u
Encoding: 85 117 45
Width: 1152
VWidth: 0
Flags: HW
AnchorPoint: "Top" 565 987.7 basechar 0
LayerCount: 2
Fore
SplineSet
804 815 m 1
 966 815 l 1
 966 60 l 1
 807 60 l 1
 807 231.871 l 1
 707.119 143.01 l 2
 614.957 61.0178 530.666 32 447 32 c 0
 288.643 32 168 140.295 168 294.85 c 2
 168 815 l 1
 330 815 l 1
 330 316.243 l 2
 330 184.518 427.254 127 526 127 c 0
 637.962 127 754.364 182.092 797.488 266.946 c 2
 804 279.759 l 1
 804 815 l 1
EndSplineSet
EndChar

StartChar: v
Encoding: 86 118 46
Width: 1082
VWidth: 0
Flags: HW
LayerCount: 2
Fore
SplineSet
930.592 824 m 1
 540.362 52 l 1
 514.835 52 l 1
 127.259 824 l 1
 296.186 824 l 1
 529.404 240.371 l 1
 759.106 824 l 1
 930.592 824 l 1
EndSplineSet
EndChar

StartChar: w
Encoding: 87 119 47
Width: 1395
VWidth: 0
Flags: HW
LayerCount: 2
Fore
SplineSet
690.498 729.784 m 1
 441.279 52 l 1
 405.144 52 l 1
 124.639 824 l 1
 295.473 824 l 1
 433.71 290.614 l 1
 614.982 824 l 1
 754.772 824 l 1
 944.575 285.371 l 1
 1089.49 824 l 1
 1246.69 824 l 1
 966.189 52 l 1
 936.224 52 l 1
 690.498 729.784 l 1
EndSplineSet
EndChar

StartChar: x
Encoding: 88 120 48
Width: 1219
VWidth: 0
Flags: HW
LayerCount: 2
Fore
SplineSet
613.423 378.995 m 1
 368.453 52 l 1
 178.683 52 l 1
 520.951 450.236 l 1
 189.876 824 l 1
 359.182 824 l 1
 605.2 511.191 l 1
 842.311 824 l 1
 1026.49 824 l 1
 697.042 439.409 l 1
 1040.09 52 l 1
 871.693 52 l 1
 613.423 378.995 l 1
EndSplineSet
EndChar

StartChar: y
Encoding: 89 121 49
Width: 1093
VWidth: 0
Flags: HW
LayerCount: 2
Fore
SplineSet
943.586 765 m 1
 432.423 -244 l 1
 265.148 -244 l 1
 464.481 177.723 l 1
 128.457 765 l 1
 313.192 765 l 1
 549.76 291.864 l 1
 779.404 765 l 1
 943.586 765 l 1
EndSplineSet
EndChar

StartChar: z
Encoding: 90 122 50
Width: 958
VWidth: 0
Flags: HW
LayerCount: 2
Fore
SplineSet
791.047 173 m 1
 791.047 52 l 1
 148.668 52 l 1
 142.647 69.5257 l 1
 585.211 704 l 1
 175.047 704 l 1
 175.047 824 l 1
 789.958 824 l 1
 802.531 796.393 l 1
 359.889 173 l 1
 791.047 173 l 1
EndSplineSet
EndChar

StartChar: acute
Encoding: 113 180 51
Width: 370
VWidth: 0
Flags: HW
HStem: 49.5977 503.422
VStem: 0.324219 384.136
AnchorPoint: "Top" 48 0.199997 mark 0
LayerCount: 2
Fore
SplineSet
8 121 m 14
 165 452 l 22
 199.355 524.432 247.557 553.02 290.038 553.02 c 4
 341.436 553.02 384.46 511.171 384.46 454.491 c 4
 384.46 422.149 370.452 384.979 336 348 c 14
 77 70 l 22
 63.7461 55.7734 49.4111 49.5977 36.7627 49.5977 c 4
 16.3477 49.5977 0.324219 65.6865 0.324219 89.9805 c 4
 0.324219 99.2676 2.66602 109.755 8 121 c 14
EndSplineSet
EndChar

StartChar: grave
Encoding: 64 96 54
Width: 370
VWidth: 0
Flags: HW
HStem: 50 503
VStem: 0 384
AnchorPoint: "Top" 336.784 0.200195 mark 0
LayerCount: 2
Fore
SplineSet
377 121 m 22
 382 110 384 99 384 90 c 4
 384 66 368 50 348 50 c 4
 335 50 321 56 308 70 c 14
 49 348 l 22
 15 385 0 422 0 454 c 4
 0 511 44 553 95 553 c 4
 137 553 186 524 220 452 c 14
 377 121 l 22
EndSplineSet
EndChar

StartChar: K
Encoding: 43 75 63
Width: 1265
VWidth: 0
Flags: HW
AnchorPoint: "Top" 516 1328 basechar 0
LayerCount: 2
Fore
SplineSet
458.365 622.155 m 1
 459.004 623 l 1
 456.85 623 l 1
 458.365 622.155 l 1
471.926 623 m 1
 459.004 623 l 1
 880.856 1181 l 1
 1084.08 1181 l 1
 669.057 634.62 l 1
 1109.43 60 l 1
 895.926 60 l 1
 471.926 623 l 1
378 667.007 m 1
 456.85 623 l 1
 380 623 l 1
 380 60 l 1
 198 60 l 1
 198 1182 l 1
 378 1182 l 1
 378 667.007 l 1
EndSplineSet
EndChar

StartChar: Z
Encoding: 58 90 64
Width: 1059
VWidth: 0
Flags: HW
LayerCount: 2
Fore
SplineSet
150.363 1181 m 1
 898.561 1181 l 1
 430.561 208 l 1
 907 208 l 1
 907 60 l 1
 161.236 60 l 1
 638.231 1033 l 1
 150.363 1033 l 1
 150.363 1181 l 1
EndSplineSet
EndChar

StartChar: ogonek
Encoding: 353 731 65
Width: 424
VWidth: 0
Flags: HW
AnchorPoint: "Bot" 290 0 mark 0
LayerCount: 2
Fore
SplineSet
260 0 m 1
 319 0 l 1
 275 -56 230 -109 230 -170 c 0
 230 -214 254 -263 319 -318 c 1
 250 -376 l 1
 175 -348 110 -299 110 -225 c 0
 110 -166 151 -92 260 0 c 1
EndSplineSet
EndChar

StartChar: cedilla
Encoding: 116 184 67
Width: 424
VWidth: 0
Flags: HW
AnchorPoint: "Bot" 305 0 mark 0
LayerCount: 2
Fore
SplineSet
260 -70 m 1
 260 1 l 1
 349 1 l 1
 349 -120 l 1
 278 -129 251 -153 251 -180 c 0
 251 -220 312 -268 379 -288 c 1
 340 -356 l 1
 210 -356 114 -280 114 -203 c 0
 114 -152 156 -100 260 -70 c 1
EndSplineSet
EndChar

